<svg xmlns="http://www.w3.org/2000/svg" version="1.1" xmlns:xlink="http://www.w3.org/1999/xlink"
     xmlns:svgjs="http://svgjs.dev/svgjs" width="2000" height="1151" viewBox="0 0 2000 1151">
    <g transform="matrix(1,0,0,1,-1.2121212121212466,0.03494240486156741)">
        <svg viewBox="0 0 396 228" data-background-color="#ffffff" preserveAspectRatio="xMidYMid meet" height="1151"
             width="2000" xmlns="http://www.w3.org/2000/svg" xmlns:xlink="http://www.w3.org/1999/xlink">
            <g id="tight-bounds" transform="matrix(1,0,0,1,0.2400000000000091,-0.006921692709326521)">
                <svg viewBox="0 0 395.52 228.01384338541865" height="228.01384338541865" width="395.52">
                    <g>
                        <svg viewBox="0 0 397.4975999999999 229.1539126023457" height="228.01384338541865"
                             width="395.52">
                            <g>
                                <rect width="397.4975999999999" height="3.984093179579411" x="0" y="123.6304585432624"
                                      fill="#ffffff" opacity="1" stroke-width="0" stroke="transparent" fill-opacity="1"
                                      class="rect-qz-0" data-fill-palette-color="primary" rx="1%" id="qz-0"
                                      data-palette-color="#3a3a3a"></rect>
                            </g>
                            <g>
                                <rect width="397.4975999999999" height="3.984093179579411" x="0" y="132.82933337150598"
                                      fill="#ffffff" opacity="1" stroke-width="0" stroke="transparent" fill-opacity="1"
                                      class="rect-qz-1" data-fill-palette-color="primary" rx="1%" id="qz-1"
                                      data-palette-color="#3a3a3a"></rect>
                            </g>
                            <g transform="matrix(1,0,0,1,0.9887999999999693,147.24298984841369)">
                                <svg viewBox="0 0 395.52 81.91092275393206" height="81.91092275393206" width="395.52">
                                    <g id="textblocktransform">
                                        <svg viewBox="0 0 395.52 81.91092275393206" height="81.91092275393206"
                                             width="395.52" id="textblock">
                                            <g>
                                                <svg viewBox="0 0 395.52 44.17883773584905" height="44.17883773584905"
                                                     width="395.52">
                                                    <g transform="matrix(1,0,0,1,0,0)">
                                                        <svg width="395.52" viewBox="2.1 -36.5 331.21999999999997 37"
                                                             height="44.17883773584905" data-palette-color="#3a3a3a">
                                                            <path d="M2.1-18L2.1-18Q2.1-21.25 3.23-24.38 4.35-27.5 6.5-30.08 8.65-32.65 11.8-34.18 14.95-35.7 18.95-35.7L18.95-35.7Q23.7-35.7 27.08-33.52 30.45-31.35 32.05-27.95L32.05-27.95 29.3-26.25Q28.15-28.6 26.4-29.98 24.65-31.35 22.68-31.95 20.7-32.55 18.75-32.55L18.75-32.55Q15.55-32.55 13.1-31.28 10.65-30 8.97-27.88 7.3-25.75 6.45-23.13 5.6-20.5 5.6-17.8L5.6-17.8Q5.6-14.85 6.6-12.15 7.6-9.45 9.4-7.38 11.2-5.3 13.63-4.08 16.05-2.85 18.9-2.85L18.9-2.85Q20.9-2.85 23-3.55 25.1-4.25 26.93-5.7 28.75-7.15 29.85-9.45L29.85-9.45 32.75-7.95Q31.65-5.3 29.35-3.45 27.05-1.6 24.23-0.65 21.4 0.3 18.7 0.3L18.7 0.3Q15.05 0.3 12-1.28 8.95-2.85 6.73-5.48 4.5-8.1 3.3-11.38 2.1-14.65 2.1-18ZM59.95-15.25L59.95 0 56.55 0 56.55-14.55Q56.55-18.95 55-21.18 53.45-23.4 50.55-23.4L50.55-23.4Q48.65-23.4 46.77-22.43 44.9-21.45 43.47-19.78 42.05-18.1 41.45-15.95L41.45-15.95 41.45 0 38.05 0 38.05-36.5 41.45-36.5 41.45-20.15Q43-23.05 45.77-24.78 48.55-26.5 51.7-26.5L51.7-26.5Q53.95-26.5 55.52-25.7 57.1-24.9 58.07-23.38 59.05-21.85 59.5-19.83 59.95-17.8 59.95-15.25L59.95-15.25ZM65.1-7.5L65.1-7.5Q65.1-9.95 66.5-11.73 67.9-13.5 70.37-14.48 72.85-15.45 76.1-15.45L76.1-15.45Q78-15.45 80.05-15.15 82.1-14.85 83.7-14.25L83.7-14.25 83.7-16.45Q83.7-19.75 81.75-21.7 79.8-23.65 76.35-23.65L76.35-23.65Q74.25-23.65 72.22-22.88 70.2-22.1 68-20.6L68-20.6 66.7-23Q69.25-24.75 71.7-25.63 74.15-26.5 76.7-26.5L76.7-26.5Q81.5-26.5 84.3-23.75 87.1-21 87.1-16.15L87.1-16.15 87.1-4.1Q87.1-3.4 87.4-3.08 87.7-2.75 88.35-2.7L88.35-2.7 88.35 0Q87.8 0.05 87.4 0.1 87 0.15 86.8 0.1L86.8 0.1Q85.55 0.05 84.9-0.7 84.25-1.45 84.2-2.3L84.2-2.3 84.15-4.2Q82.4-1.95 79.6-0.73 76.8 0.5 73.9 0.5L73.9 0.5Q71.4 0.5 69.37-0.58 67.35-1.65 66.22-3.48 65.1-5.3 65.1-7.5ZM82.55-5.5L82.55-5.5Q83.1-6.2 83.4-6.85 83.7-7.5 83.7-8L83.7-8 83.7-11.8Q82-12.45 80.17-12.8 78.35-13.15 76.5-13.15L76.5-13.15Q72.85-13.15 70.6-11.7 68.35-10.25 68.35-7.75L68.35-7.75Q68.35-6.3 69.1-5.03 69.85-3.75 71.3-2.93 72.75-2.1 74.7-2.1L74.7-2.1Q77.15-2.1 79.27-3.05 81.4-4 82.55-5.5ZM92.24 0L92.24-2.3 109.69-23.5 92.64-23.5 92.64-26.05 113.54-26.05 113.54-23.75 96.19-2.55 113.49-2.55 113.49 0 92.24 0ZM161.09 0L156.59 0 138.89-18.65Q136.74-20.95 135.44-22.58 134.14-24.2 133.59-25.53 133.04-26.85 133.04-28.15L133.04-28.15Q133.04-30.35 134.21-32.1 135.39-33.85 137.41-34.9 139.44-35.95 141.94-35.95L141.94-35.95Q144.29-35.95 146.16-35.08 148.04-34.2 149.14-32.63 150.24-31.05 150.24-28.95L150.24-28.95Q150.24-26.7 148.96-24.93 147.69-23.15 145.66-21.63 143.64-20.1 141.19-18.55L141.19-18.55Q139.14-17.15 137.41-15.73 135.69-14.3 134.69-12.7 133.69-11.1 133.69-9.05L133.69-9.05Q133.69-6.85 134.94-5.33 136.19-3.8 138.11-3.03 140.04-2.25 142.09-2.25L142.09-2.25Q144.79-2.25 147.06-3.48 149.34-4.7 151.04-6.88 152.74-9.05 153.66-11.85 154.59-14.65 154.59-17.8L154.59-17.8 157.49-17.8Q157.49-14 156.29-10.68 155.09-7.35 152.96-4.85 150.84-2.35 147.96-0.93 145.09 0.5 141.74 0.5L141.74 0.5Q138.64 0.5 136.04-0.73 133.44-1.95 131.91-4.1 130.39-6.25 130.39-9.15L130.39-9.15Q130.39-11.85 131.66-13.88 132.94-15.9 134.96-17.53 136.99-19.15 139.24-20.6L139.24-20.6Q141.54-22.1 143.31-23.38 145.09-24.65 146.09-25.98 147.09-27.3 147.09-28.85L147.09-28.85Q147.09-30.8 145.64-32.05 144.19-33.3 141.94-33.3L141.94-33.3Q140.29-33.3 138.99-32.6 137.69-31.9 136.94-30.75 136.19-29.6 136.19-28.25L136.19-28.25Q136.19-27.4 136.59-26.48 136.99-25.55 138.14-24.18 139.29-22.8 141.44-20.55L141.44-20.55 161.09 0ZM213.53 0L210.03 0 210.03-28.9 197.18-6.45 194.98-6.45 182.08-28.9 182.08 0 178.58 0 178.58-35.5 182.18-35.5 196.03-11.2 209.98-35.5 213.53-35.5 213.53 0ZM219.38-7.5L219.38-7.5Q219.38-9.95 220.78-11.73 222.18-13.5 224.66-14.48 227.13-15.45 230.38-15.45L230.38-15.45Q232.28-15.45 234.33-15.15 236.38-14.85 237.98-14.25L237.98-14.25 237.98-16.45Q237.98-19.75 236.03-21.7 234.08-23.65 230.63-23.65L230.63-23.65Q228.53-23.65 226.51-22.88 224.48-22.1 222.28-20.6L222.28-20.6 220.98-23Q223.53-24.75 225.98-25.63 228.43-26.5 230.98-26.5L230.98-26.5Q235.78-26.5 238.58-23.75 241.38-21 241.38-16.15L241.38-16.15 241.38-4.1Q241.38-3.4 241.68-3.08 241.98-2.75 242.63-2.7L242.63-2.7 242.63 0Q242.08 0.05 241.68 0.1 241.28 0.15 241.08 0.1L241.08 0.1Q239.83 0.05 239.18-0.7 238.53-1.45 238.48-2.3L238.48-2.3 238.43-4.2Q236.68-1.95 233.88-0.73 231.08 0.5 228.18 0.5L228.18 0.5Q225.68 0.5 223.66-0.58 221.63-1.65 220.51-3.48 219.38-5.3 219.38-7.5ZM236.83-5.5L236.83-5.5Q237.38-6.2 237.68-6.85 237.98-7.5 237.98-8L237.98-8 237.98-11.8Q236.28-12.45 234.46-12.8 232.63-13.15 230.78-13.15L230.78-13.15Q227.13-13.15 224.88-11.7 222.63-10.25 222.63-7.75L222.63-7.75Q222.63-6.3 223.38-5.03 224.13-3.75 225.58-2.93 227.03-2.1 228.98-2.1L228.98-2.1Q231.43-2.1 233.56-3.05 235.68-4 236.83-5.5ZM261.73-26.15L261.73-23.05Q258.33-22.95 255.75-21.15 253.18-19.35 252.13-16.2L252.13-16.2 252.13 0 248.73 0 248.73-26.05 251.93-26.05 251.93-19.8Q253.28-22.55 255.5-24.25 257.73-25.95 260.23-26.15L260.23-26.15Q260.73-26.2 261.1-26.2 261.48-26.2 261.73-26.15L261.73-26.15ZM277.88-4L278.78-1.25Q278.38-1.1 277.53-0.7 276.68-0.3 275.48 0 274.28 0.3 272.88 0.3L272.88 0.3Q271.43 0.3 270.15-0.25 268.88-0.8 268.13-1.93 267.38-3.05 267.38-4.7L267.38-4.7 267.38-23.35 263.78-23.35 263.78-26.05 267.38-26.05 267.38-34.85 270.78-34.85 270.78-26.05 276.78-26.05 276.78-23.35 270.78-23.35 270.78-5.65Q270.88-4.25 271.8-3.55 272.73-2.85 273.93-2.85L273.93-2.85Q275.33-2.85 276.48-3.33 277.63-3.8 277.88-4L277.88-4ZM304.92-15.25L304.92 0 301.52 0 301.52-14.55Q301.52-18.95 299.97-21.18 298.42-23.4 295.52-23.4L295.52-23.4Q293.62-23.4 291.75-22.43 289.87-21.45 288.45-19.78 287.02-18.1 286.42-15.95L286.42-15.95 286.42 0 283.02 0 283.02-36.5 286.42-36.5 286.42-20.15Q287.97-23.05 290.75-24.78 293.52-26.5 296.67-26.5L296.67-26.5Q298.92-26.5 300.5-25.7 302.07-24.9 303.05-23.38 304.02-21.85 304.47-19.83 304.92-17.8 304.92-15.25L304.92-15.25ZM310.07-7.5L310.07-7.5Q310.07-9.95 311.47-11.73 312.87-13.5 315.35-14.48 317.82-15.45 321.07-15.45L321.07-15.45Q322.97-15.45 325.02-15.15 327.07-14.85 328.67-14.25L328.67-14.25 328.67-16.45Q328.67-19.75 326.72-21.7 324.77-23.65 321.32-23.65L321.32-23.65Q319.22-23.65 317.19-22.88 315.17-22.1 312.97-20.6L312.97-20.6 311.67-23Q314.22-24.75 316.67-25.63 319.12-26.5 321.67-26.5L321.67-26.5Q326.47-26.5 329.27-23.75 332.07-21 332.07-16.15L332.07-16.15 332.07-4.1Q332.07-3.4 332.37-3.08 332.67-2.75 333.32-2.7L333.32-2.7 333.32 0Q332.77 0.05 332.37 0.1 331.97 0.15 331.77 0.1L331.77 0.1Q330.52 0.05 329.87-0.7 329.22-1.45 329.17-2.3L329.17-2.3 329.12-4.2Q327.37-1.95 324.57-0.73 321.77 0.5 318.87 0.5L318.87 0.5Q316.37 0.5 314.35-0.58 312.32-1.65 311.19-3.48 310.07-5.3 310.07-7.5ZM327.52-5.5L327.52-5.5Q328.07-6.2 328.37-6.85 328.67-7.5 328.67-8L328.67-8 328.67-11.8Q326.97-12.45 325.15-12.8 323.32-13.15 321.47-13.15L321.47-13.15Q317.82-13.15 315.57-11.7 313.32-10.25 313.32-7.75L313.32-7.75Q313.32-6.3 314.07-5.03 314.82-3.75 316.27-2.93 317.72-2.1 319.67-2.1L319.67-2.1Q322.12-2.1 324.25-3.05 326.37-4 327.52-5.5Z"
                                                                  opacity="1" transform="matrix(1,0,0,1,0,0)"
                                                                  fill="#ffffff" class="wordmark-text-0"
                                                                  data-fill-palette-color="primary" id="text-0"></path>
                                                        </svg>
                                                    </g>
                                                </svg>
                                            </g>
                                            <g transform="matrix(1,0,0,1,85.33225191000238,54.60840103317735)">
                                                <svg viewBox="0 0 224.8554961799952 27.30252172075471"
                                                     height="27.30252172075471" width="224.8554961799952">
                                                    <g transform="matrix(1,0,0,1,0,0)">
                                                        <svg width="224.8554961799952"
                                                             viewBox="1.4 -35.35 295.21000000000004 35.85"
                                                             height="27.30252172075471" data-palette-color="#3a3a3a">
                                                            <path d="M11.15 0.5L11.15 0.5Q8.45 0.5 6.25-0.85 4.05-2.2 2.73-4.48 1.4-6.75 1.4-9.55L1.4-9.55 1.4-25.4Q1.4-28.1 2.73-30.38 4.05-32.65 6.28-34 8.5-35.35 11.15-35.35L11.15-35.35Q13.9-35.35 16.13-34.02 18.35-32.7 19.65-30.45 20.95-28.2 20.95-25.4L20.95-25.4 20.95-23.1Q20.95-22.9 20.7-22.9L20.7-22.9 15.1-22.9Q14.9-22.9 14.9-23.1L14.9-23.1 14.9-25Q14.9-26.9 13.83-28.15 12.75-29.4 11.15-29.4L11.15-29.4Q9.7-29.4 8.58-28.2 7.45-27 7.45-25.4L7.45-25.4 7.45-9.55Q7.45-7.9 8.55-6.73 9.65-5.55 11.15-5.55L11.15-5.55Q12.75-5.55 13.83-6.7 14.9-7.85 14.9-9.55L14.9-9.55 14.9-12 11.4-12Q11.15-12 11.15-12.25L11.15-12.25 11.15-17.85Q11.15-18.1 11.4-18.1L11.4-18.1 20.75-18.1Q20.95-18.1 20.95-17.85L20.95-17.85 20.95-9.55Q20.95-6.75 19.63-4.48 18.3-2.2 16.1-0.85 13.9 0.5 11.15 0.5ZM40.85 0L24.7 0Q24.5 0 24.5-0.25L24.5-0.25 24.55-34.6Q24.55-34.8 24.75-34.8L24.75-34.8 40.8-34.8Q41-34.8 41-34.55L41-34.55 41-28.95Q41-28.75 40.8-28.75L40.8-28.75 30.55-28.75 30.55-20.95 40.8-20.95Q41-20.95 41-20.75L41-20.75 41.05-15.1Q41.05-14.9 40.85-14.9L40.85-14.9 30.55-14.9 30.55-6.15 40.85-6.15Q41.05-6.15 41.05-5.9L41.05-5.9 41.05-0.2Q41.05 0 40.85 0L40.85 0ZM56.15 0L50.5 0Q50.3 0 50.3-0.25L50.3-0.25 50.3-28.75 43.8-28.75Q43.55-28.75 43.55-29L43.55-29 43.6-34.6Q43.6-34.8 43.8-34.8L43.8-34.8 62.8-34.8Q63.05-34.8 63.05-34.6L63.05-34.6 63.05-29Q63.05-28.75 62.85-28.75L62.85-28.75 56.3-28.75 56.35-0.25Q56.35 0 56.15 0L56.15 0ZM76.14 0L70.49 0Q70.29 0 70.29-0.25L70.29-0.25 70.29-28.75 63.79-28.75Q63.54-28.75 63.54-29L63.54-29 63.59-34.6Q63.59-34.8 63.79-34.8L63.79-34.8 82.79-34.8Q83.04-34.8 83.04-34.6L83.04-34.6 83.04-29Q83.04-28.75 82.84-28.75L82.84-28.75 76.29-28.75 76.34-0.25Q76.34 0 76.14 0L76.14 0ZM91.39 0L85.74 0Q85.49 0 85.49-0.25L85.49-0.25 85.54-34.6Q85.54-34.8 85.74-34.8L85.74-34.8 91.34-34.8Q91.54-34.8 91.54-34.6L91.54-34.6 91.59-0.25Q91.59 0 91.39 0L91.39 0ZM101.44 0L96.44 0Q96.04 0 96.04-0.35L96.04-0.35 95.99-34.4Q95.99-34.8 96.39-34.8L96.39-34.8 100.89-34.8 109.34-15.1 109.09-34.4Q109.09-34.8 109.54-34.8L109.54-34.8 114.49-34.8Q114.79-34.8 114.79-34.4L114.79-34.4 114.84-0.3Q114.84 0 114.59 0L114.59 0 110.19 0 101.54-18.4 101.89-0.4Q101.89 0 101.44 0L101.44 0ZM128.34 0.5L128.34 0.5Q125.64 0.5 123.44-0.85 121.24-2.2 119.91-4.48 118.59-6.75 118.59-9.55L118.59-9.55 118.59-25.4Q118.59-28.1 119.91-30.38 121.24-32.65 123.46-34 125.69-35.35 128.34-35.35L128.34-35.35Q131.09-35.35 133.31-34.02 135.54-32.7 136.84-30.45 138.14-28.2 138.14-25.4L138.14-25.4 138.14-23.1Q138.14-22.9 137.89-22.9L137.89-22.9 132.29-22.9Q132.09-22.9 132.09-23.1L132.09-23.1 132.09-25Q132.09-26.9 131.01-28.15 129.94-29.4 128.34-29.4L128.34-29.4Q126.89-29.4 125.76-28.2 124.64-27 124.64-25.4L124.64-25.4 124.64-9.55Q124.64-7.9 125.74-6.73 126.84-5.55 128.34-5.55L128.34-5.55Q129.94-5.55 131.01-6.7 132.09-7.85 132.09-9.55L132.09-9.55 132.09-12 128.59-12Q128.34-12 128.34-12.25L128.34-12.25 128.34-17.85Q128.34-18.1 128.59-18.1L128.59-18.1 137.94-18.1Q138.14-18.1 138.14-17.85L138.14-17.85 138.14-9.55Q138.14-6.75 136.81-4.48 135.49-2.2 133.29-0.85 131.09 0.5 128.34 0.5ZM154.93 0L149.28 0Q149.08 0 149.08-0.25L149.08-0.25 149.18-34.6Q149.18-34.8 149.38-34.8L149.38-34.8 155.48-34.8Q155.68-34.8 155.83-34.6L155.83-34.6 160.38-28 164.93-34.6Q165.08-34.8 165.28-34.8L165.28-34.8 171.43-34.8Q171.63-34.8 171.63-34.6L171.63-34.6 171.73-0.25Q171.73 0 171.53 0L171.53 0 165.88 0Q165.68 0 165.68-0.25L165.68-0.25 165.63-25.75 160.38-18.15 155.18-25.75 155.13-0.25Q155.13 0 154.93 0L154.93 0ZM174.23-0.25L174.23-0.25 180.43-34.6Q180.48-34.8 180.68-34.8L180.68-34.8 187.93-34.8Q188.13-34.8 188.18-34.6L188.18-34.6 194.13-0.25Q194.18 0 193.93 0L193.93 0 188.38 0Q188.18 0 188.13-0.25L188.13-0.25 187.58-3.9 180.78-3.9 180.23-0.25Q180.18 0 179.98 0L179.98 0 174.43 0Q174.23 0 174.23-0.25ZM184.03-23.3L181.78-9.25 186.58-9.25 184.53-23.3 184.23-25.15 184.03-23.3ZM203.13 0L197.47 0Q197.28 0 197.28-0.25L197.28-0.25 197.38-34.6Q197.38-34.8 197.58-34.8L197.58-34.8 207.68-34.8Q210.38-34.8 212.65-33.48 214.93-32.15 216.28-29.93 217.63-27.7 217.63-24.9L217.63-24.9Q217.63-23.05 217.08-21.58 216.53-20.1 215.78-19.07 215.03-18.05 214.43-17.55L214.43-17.55Q217.13-14.55 217.13-10.5L217.13-10.5 217.18-0.25Q217.18 0 216.93 0L216.93 0 211.28 0Q211.08 0 211.08-0.15L211.08-0.15 211.08-10.5Q211.08-12.3 209.8-13.63 208.53-14.95 206.68-14.95L206.68-14.95 203.38-14.95 203.33-0.25Q203.33 0 203.13 0L203.13 0ZM203.38-28.8L203.38-20.95 207.68-20.95Q209.22-20.95 210.43-22.1 211.63-23.25 211.63-24.9L211.63-24.9Q211.63-26.5 210.45-27.65 209.28-28.8 207.68-28.8L207.68-28.8 203.38-28.8ZM227.22 0L221.57 0Q221.37 0 221.37-0.25L221.37-0.25 221.47-34.6Q221.47-34.8 221.67-34.8L221.67-34.8 231.77-34.8Q234.47-34.8 236.75-33.48 239.02-32.15 240.37-29.93 241.72-27.7 241.72-24.9L241.72-24.9Q241.72-23.05 241.17-21.58 240.62-20.1 239.87-19.07 239.12-18.05 238.52-17.55L238.52-17.55Q241.22-14.55 241.22-10.5L241.22-10.5 241.27-0.25Q241.27 0 241.02 0L241.02 0 235.37 0Q235.17 0 235.17-0.15L235.17-0.15 235.17-10.5Q235.17-12.3 233.9-13.63 232.62-14.95 230.77-14.95L230.77-14.95 227.47-14.95 227.42-0.25Q227.42 0 227.22 0L227.22 0ZM227.47-28.8L227.47-20.95 231.77-20.95Q233.32-20.95 234.52-22.1 235.72-23.25 235.72-24.9L235.72-24.9Q235.72-26.5 234.55-27.65 233.37-28.8 231.77-28.8L231.77-28.8 227.47-28.8ZM251.37 0L245.72 0Q245.47 0 245.47-0.25L245.47-0.25 245.52-34.6Q245.52-34.8 245.72-34.8L245.72-34.8 251.32-34.8Q251.52-34.8 251.52-34.6L251.52-34.6 251.57-0.25Q251.57 0 251.37 0L251.37 0ZM272.32 0L256.17 0Q255.97 0 255.97-0.25L255.97-0.25 256.02-34.6Q256.02-34.8 256.22-34.8L256.22-34.8 272.27-34.8Q272.47-34.8 272.47-34.55L272.47-34.55 272.47-28.95Q272.47-28.75 272.27-28.75L272.27-28.75 262.02-28.75 262.02-20.95 272.27-20.95Q272.47-20.95 272.47-20.75L272.47-20.75 272.52-15.1Q272.52-14.9 272.32-14.9L272.32-14.9 262.02-14.9 262.02-6.15 272.32-6.15Q272.52-6.15 272.52-5.9L272.52-5.9 272.52-0.2Q272.52 0 272.32 0L272.32 0ZM286.16-0.05L277.21 0Q276.96 0 276.96-0.25L276.96-0.25 277.06-34.6Q277.06-34.8 277.26-34.8L277.26-34.8 286.61-34.85Q289.36-34.9 291.64-33.55 293.91-32.2 295.26-29.93 296.61-27.65 296.61-24.9L296.61-24.9 296.61-10.55Q296.61-7.65 295.21-5.28 293.81-2.9 291.46-1.5 289.11-0.1 286.16-0.05L286.16-0.05ZM283.11-28.8L283.06-6.15 286.16-6.15Q288.01-6.15 289.29-7.45 290.56-8.75 290.56-10.55L290.56-10.55 290.56-24.95Q290.56-26.55 289.39-27.73 288.21-28.9 286.61-28.85L286.61-28.85 283.11-28.8Z"
                                                                  opacity="1" transform="matrix(1,0,0,1,0,0)"
                                                                  fill="#ffffff" class="slogan-text-1"
                                                                  data-fill-palette-color="secondary"
                                                                  id="text-1"></path>
                                                        </svg>
                                                    </g>
                                                </svg>
                                            </g>
                                        </svg>
                                    </g>
                                </svg>
                            </g>
                            <g transform="matrix(1,0,0,1,147.75995927095428,0)">
                                <svg viewBox="0 0 101.97768145809137 113.2008952459341" height="113.2008952459341"
                                     width="101.97768145809137">
                                    <g>
                                        <svg xmlns="http://www.w3.org/2000/svg" xmlns:xlink="http://www.w3.org/1999/xlink" version="1.1" x="0" y="0" viewBox="6.683000000000001 2.4659999999999993 76.63400000000001 85.068" enable-background="new 0 0 90 90" xml:space="preserve" height="113.2008952459341" width="101.97768145809137" class="icon-icon-0" data-fill-palette-color="accent" id="icon-0"><g fill="#3a3a3a" data-fill-palette-color="accent"><g fill="#3a3a3a" data-fill-palette-color="accent"><g fill="#3a3a3a" data-fill-palette-color="accent"><path d="M37.967 13.635c0 4.07-3.297 7.366-7.372 7.366-4.066 0-7.368-3.296-7.368-7.366 0-4.071 3.302-7.369 7.368-7.369C34.669 6.266 37.967 9.563 37.967 13.635z" fill="#ffffff" data-fill-palette-color="accent"></path></g><g
                                                fill="#3a3a3a" data-fill-palette-color="accent"><path d="M52.501 87.534H8.694c-1.11 0-2.011-0.901-2.011-2.012 0-20.061 6.732-37.337 16.586-43.177-1.452-3.53-2.784-7.975-2.784-10.907 0-7.696 6.83-7.696 10.112-7.696s10.115 0 10.115 7.696c0 2.938-1.333 7.38-2.787 10.907 9.854 5.837 16.585 23.116 16.585 43.177C54.511 86.633 53.611 87.534 52.501 87.534zM10.729 83.511h39.736c-0.445-18.543-7.01-34.512-15.938-38.395-0.497-0.218-0.886-0.627-1.078-1.134-0.193-0.506-0.171-1.07 0.058-1.56 1.815-3.902 3.183-8.624 3.183-10.984 0-2.712-0.92-3.674-6.092-3.674-5.17 0-6.092 0.962-6.092 3.674 0 2.357 1.369 7.079 3.183 10.984 0.228 0.492 0.249 1.054 0.056 1.56-0.192 0.51-0.581 0.916-1.078 1.134C17.739 48.999 11.175 64.968 10.729 83.511z" fill="#ffffff" data-fill-palette-color="accent"></path></g></g><g
                                                fill="#3a3a3a" data-fill-palette-color="accent"><g fill="#3a3a3a" data-fill-palette-color="accent"><path d="M76 10.557c0 4.465-3.62 8.087-8.086 8.087-4.471 0-8.094-3.622-8.094-8.087 0-4.468 3.623-8.091 8.094-8.091C72.38 2.466 76 6.089 76 10.557z" fill="#ffffff" data-fill-palette-color="accent"></path></g>
                                            <g fill="#3a3a3a" data-fill-palette-color="accent"><path d="M80.593 22.368h-6.489l-6.195 13.279-6.191-13.279h-6.492c-1.505 0-2.724 1.048-2.724 2.338 0 0.114 0.006 0.229 0.028 0.338l0.101 0.566 6.444 30.384v31.54h17.664v-31.54l6.498-30.664 0.055-0.286c0.02-0.109 0.025-0.224 0.025-0.338C83.316 23.416 82.097 22.368 80.593 22.368z" fill="#ffffff" data-fill-palette-color="accent"></path></g></g></g></svg>
                                    </g>
                                </svg>
                            </g>
                            <g></g>
                        </svg>
                    </g>
                    <defs></defs>
                </svg>
                <rect width="395.52" height="228.01384338541865" fill="none" stroke="none" visibility="hidden"></rect>
            </g>
        </svg>
    </g>
</svg>